<?xml version="1.0" standalone="no"?>
<!DOCTYPE svg PUBLIC "-//W3C//DTD SVG 20010904//EN"
 "http://www.w3.org/TR/2001/REC-SVG-20010904/DTD/svg10.dtd">
<svg version="1.0" xmlns="http://www.w3.org/2000/svg"
 width="300.000000pt" height="300.000000pt" viewBox="0 0 300.000000 300.000000"
 preserveAspectRatio="xMidYMid meet">
<metadata>
Created by potrace 1.11, written by Peter Selinger 2001-2013
</metadata>
<g transform="translate(0.000000,300.000000) scale(0.100000,-0.100000)"
fill="#000000" stroke="none">
<path d="M130 1040 l0 -910 130 0 130 0 0 212 0 213 87 87 c48 49 91 88 94 88
4 0 55 -114 114 -253 59 -138 116 -273 127 -299 l20 -48 130 0 c100 0 129 3
125 13 -11 30 -329 783 -333 788 -4 7 221 261 235 267 4 1 11 -10 17 -26 6
-15 109 -256 230 -535 l219 -507 51 0 52 0 75 178 c41 97 119 282 173 411 68
164 101 230 107 220 4 -8 84 -192 177 -409 l168 -395 53 0 53 0 263 605 c144
333 263 608 263 613 0 4 -58 7 -129 7 l-128 0 -101 -232 c-55 -128 -126 -295
-159 -370 -32 -76 -60 -138 -63 -137 -3 0 -52 113 -109 252 -57 139 -127 305
-154 370 l-49 118 -91 -3 -90 -3 -32 -75 c-226 -536 -279 -659 -283 -655 -3 2
-76 168 -162 367 l-157 363 -169 3 -168 3 -228 -228 -228 -228 0 523 0 522
-130 0 -130 0 0 -910z"/>
</g>
</svg>
